<svg viewBox="0 0 160.63 29.2" xmlns="http://www.w3.org/2000/svg"><g fill-rule="evenodd"><path d="m36.43 9.01c-1.46-1.44-3.52-2.26-5.56-2.23-1.47.03-2.92.52-4.13 1.33v-7.05s-3.62 0-3.62 0l-.05 20.81h2.92c.06-.36.13-.8.19-1.27 1.29 1.07 2.96 1.72 4.68 1.77 2.04.03 4.09-.79 5.55-2.24 1.44-1.46 2.26-3.52 2.23-5.55.04-2.03-.78-4.09-2.23-5.56zm-2.59 8.53c-.76.8-1.85 1.26-2.97 1.24-1.11.02-2.2-.44-2.97-1.24-.74-.84-1.03-1.93-1.02-2.97-.02-1.04.26-2.14 1-2.98.77-.8 1.87-1.26 2.98-1.23 1.11-.01 2.2.45 2.97 1.25.74.84 1.02 1.93 1.01 2.96.01 1.04-.27 2.12-1.01 2.97z" fill="#0f0f0f"/><path d="m56.03 14.63c.03 2.03-.79 4.09-2.24 5.55-1.46 1.44-3.51 2.27-5.55 2.24-2.03.03-4.09-.8-5.55-2.24-1.44-1.46-2.26-3.51-2.24-5.55-.03-2.03.78-4.09 2.23-5.56 1.46-1.44 3.52-2.26 5.56-2.23 2.04-.03 4.1.78 5.56 2.23 1.44 1.46 2.26 3.52 2.23 5.56m-3.81 0c0-1.04-.27-2.12-1.01-2.96-.76-.8-1.85-1.26-2.97-1.25-1.11-.02-2.21.43-2.98 1.23-.75.85-1.03 1.94-1.01 2.98 0 1.04.28 2.13 1.03 2.97.76.8 1.86 1.26 2.97 1.24 1.11.02 2.2-.44 2.97-1.24.74-.84 1.03-1.93 1.01-2.97" fill="#0f0f0f"/><path d="m16.08 6.96c.76.22 1.48.58 2.08 1.08.63.5 1.16 1.18 1.49 1.89.34.71.51 1.41.6 2.07.1.65.11 1.31.11 1.86v1.6s0 6.4 0 6.4h-3.71v-6.41s0-1.6 0-1.6c0-.52-.01-.93-.07-1.34-.12-.82-.36-1.29-.75-1.6-.46-.34-.98-.52-1.62-.49-.62 0-1.5.15-2.17.67-.67.48-1.2 1.2-1.49 2-.16.49-.25.98-.29 1.48v.86s0 .09 0 .13 0 6.3 0 6.3h-3.71v-14.58h3.19l.32 1.82v.05c.07-.08.14-.15.21-.23.87-.91 1.99-1.76 3.49-2.05.74-.13 1.54-.1 2.3.1z" fill="#0f0f0f"/><path d="m0 21.86h3.71v-20.79h-3.71z" fill="#0f0f0f"/><path d="m71.02 7.02h-4.53l-2.98 4.26-2.98-4.26h-4.53l5.24 7.5-5.22 7.45h4.53l2.95-4.22 2.95 4.22h4.53l-5.22-7.45 5.25-7.49z" fill="#0f0f0f"/><g fill="#06f"><path d="m117.46 11.97c-.17-.46-.39-.79-.68-1.02s-.78-.47-1.32-.58-1.13-.14-1.68-.07c-.27.04-.54.1-.77.19-.31.14-.54.31-.57.38l-.08.07c-.19.24-.18.37-.18.64.01.27.18.59.47.76l.1.05c.27.15.59.26.98.34.37.09.76.15 1.18.22.84.14 1.75.24 2.79.56.52.17 1.05.37 1.61.74.55.36 1.12.92 1.47 1.67.35.74.44 1.52.37 2.25-.07.72-.43 1.5-.81 2.03-.86 1.21-2.11 1.8-3.2 2.1-1.13.3-2.26.35-3.39.17-.57-.09-1.13-.25-1.69-.49-.57-.24-1.1-.58-1.55-.94-.96-.75-1.69-1.85-2.06-2.94l3.47-1.25c.17.58.43 1.02.84 1.39.24.21.44.36.69.49s.55.23.86.3c.62.14 1.32.16 1.95.03.64-.15 1.11-.47 1.35-.79.15-.21.21-.33.24-.55.03-.2 0-.39-.06-.5-.08-.2-.49-.53-1.18-.71-.66-.18-1.49-.28-2.38-.41-.91-.14-1.91-.28-2.99-.89l.14.07c-1.24-.54-2.19-1.68-2.47-3.03-.14-.68-.11-1.42.14-2.12.24-.69.69-1.31 1.21-1.74l-.1.09c.57-.52 1.03-.72 1.4-.92.49-.25.97-.4 1.46-.51.97-.23 1.94-.26 2.91-.13.97.14 1.95.43 2.91 1.07.96.65 1.63 1.61 2.02 2.55l-3.39 1.43z"/><path d="m99.85 10.51c.25 0 .5.03.76.07.29.05.52.1.74.18.44.15.8.37 1.1.67.3.29.56.68.75 1.13.05.13.09.28.14.42h-7.12c.23-.62.55-1.14 1.01-1.54.73-.64 1.58-.93 2.63-.92zm.22 8.34c-.5 0-1.01-.08-1.49-.23-1.21-.38-2.07-1.26-2.47-2.39h11.07c.11-.68.09-1.26.12-1.87 0 0 0-.21-.03-.64v.16c-.02-.27-.05-.55-.09-.82-.04-.23-.08-.43-.13-.65-.1-.43-.24-.87-.42-1.29-.36-.85-.88-1.67-1.59-2.36s-1.59-1.21-2.48-1.51c-.45-.16-.91-.26-1.31-.33-.44-.08-.89-.12-1.34-.13-.9 0-1.81.12-2.72.43-.91.32-1.72.8-2.43 1.42-1.47 1.25-2.26 3.13-2.52 4.79-.14.91-.13 1.79 0 2.69.12.87.5 1.88.92 2.61.44.79 1.07 1.56 1.83 2.14.73.58 1.56 1.01 2.43 1.3.87.28 1.77.42 2.67.42.85 0 1.8-.13 2.65-.42.9-.29 1.79-.8 2.49-1.45.73-.64 1.26-1.36 1.66-2.15l-3.15-1.72c-.56 1.04-1.29 1.57-2.16 1.79-.5.15-.96.22-1.51.23z"/><path d="m126.8 7.35v14.76h-3.71v-14.76zm-1.78-6.91c1.35 0 2.44 1.1 2.44 2.44s-1.1 2.44-2.44 2.44-2.44-1.1-2.44-2.44 1.1-2.44 2.44-2.44z"/><path d="m76.68 18.39h2.99c1.15 0 2.19-.17 3.1-.52.85-.32 1.59-.79 2.21-1.39.6-.58 1.06-1.29 1.38-2.11.32-.84.49-1.82.49-2.92s-.16-2.04-.49-2.89c-.32-.82-.79-1.54-1.4-2.15-.6-.58-1.34-1.05-2.19-1.37-.91-.34-1.95-.52-3.1-.52h-2.99zm-3.71 3.71v-21.28h6.71c1.6 0 3.08.25 4.41.76 1.32.5 2.49 1.24 3.48 2.2 1 1 1.75 2.16 2.26 3.46.5 1.29.74 2.67.74 4.23s-.25 2.98-.74 4.25c-.51 1.33-1.27 2.48-2.26 3.44-.98.96-2.16 1.69-3.48 2.2-1.33.5-2.82.76-4.41.76h-6.71z"/><path d="m136.35 6.92c1.5.04 2.97.54 4.18 1.38l.42-1.31h3.17v13.61c0 .69-.03 1.48-.17 2.26s-.38 1.61-.81 2.4c-.43.78-.94 1.42-1.59 2.01-1.29 1.18-2.99 1.83-4.68 1.92-1.71.07-3.33-.36-4.77-1.22-.72-.42-1.43-1.05-1.94-1.7-.51-.62-.94-1.36-1.25-2.05l3.38-1.55c.22.49.46.88.77 1.27.29.36.57.6.97.85.78.48 1.78.73 2.66.69.89-.06 1.75-.39 2.38-.96.32-.28.61-.67.81-1.02.19-.35.33-.78.42-1.27.06-.32.09-.64.1-.99-1.19.78-2.6 1.23-4.04 1.27-2.04.03-4.09-.8-5.55-2.24-1.44-1.46-2.27-3.51-2.24-5.55-.03-2.03.78-4.09 2.23-5.56 1.46-1.44 3.52-2.26 5.56-2.23zm0 3.57c-1.11-.02-2.21.43-2.98 1.23-.75.85-1.03 1.94-1.01 2.98 0 1.04.28 2.13 1.02 2.97.76.8 1.86 1.26 2.97 1.24 1.11 0 2.19-.46 2.97-1.24.74-.83 1.12-1.9 1.08-2.97.04-1.07-.35-2.14-1.09-2.96-.78-.79-1.85-1.24-2.96-1.25z"/><path d="m156.36 6.94c.76.22 1.48.58 2.08 1.08.63.5 1.16 1.18 1.49 1.89.34.71.51 1.41.6 2.07.1.65.11 1.31.11 1.86v8.01s-3.71 0-3.71 0v-8.01c0-.52 0-.93-.07-1.34-.12-.82-.36-1.29-.75-1.6-.46-.35-.98-.52-1.62-.49-.62 0-1.5.15-2.17.67-.67.48-1.2 1.2-1.49 2-.16.48-.25.97-.29 1.47v.87s0 .09 0 .13 0 6.3 0 6.3h-3.71v-14.6h3.19l.32 1.82v.04c.08-.08.14-.15.21-.23.87-.91 1.99-1.76 3.49-2.05.74-.13 1.54-.1 2.3.1z"/></g></g></svg>